<svg xmlns="http://www.w3.org/2000/svg" width="200" height="53" fill="none" viewBox="0 0 200 53">
  <g clip-path="url(#clip0)">
    <path fill="#CD8B89" d="M5.28 3.993H.584A.583.583 0 010 3.41V.89A.583.583 0 01.583.309h13.43a.567.567 0 01.582.575V3.41a.583.583 0 01-.575.583H9.306v17.244a.6.6 0 01-.575.583H5.864a.615.615 0 01-.583-.583V3.993zM20.864.89a.583.583 0 01.583-.582h8.788a6.658 6.658 0 016.707 6.6 6.803 6.803 0 01-4.544 6.213l4.212 7.8a.6.6 0 01-.179.81.64.64 0 01-.34.08h-3.24a.51.51 0 01-.494-.274l-4.05-8.1h-3.442v7.832a.608.608 0 01-.59.583h-2.828a.575.575 0 01-.583-.575V.891zm9.04 9.218a3.126 3.126 0 003.037-3.134 3.053 3.053 0 00-3.038-2.981h-5.005v6.115h5.005zM41.607 21.059L51.164.34a.56.56 0 01.527-.34h.307a.518.518 0 01.519.34l9.468 20.719a.55.55 0 01-.227.737.542.542 0 01-.3.056h-2.672a.874.874 0 01-.891-.615l-1.507-3.321h-9.184l-1.507 3.32a.924.924 0 01-.89.616h-2.69a.533.533 0 01-.526-.81l.016.017zm13.259-6.57l-3.03-6.77h-.088l-3.014 6.755 6.132.016zM67.85.559A.584.584 0 0168.431 0h.81l12.79 13.59V.89a.583.583 0 01.583-.582h2.826a.6.6 0 01.583.583v20.686a.568.568 0 01-.583.55h-.737l-12.862-14.1v13.21a.583.583 0 01-.583.583h-2.827a.607.607 0 01-.583-.583V.559zM93.427 18.807l1.102-1.903a.72.72 0 01.98-.26l.065.049c.162.09 2.648 1.903 4.641 1.903a2.567 2.567 0 002.794-2.316v-.081c0-1.571-1.32-2.64-3.904-3.685-2.892-1.175-5.783-3.013-5.783-6.65 0-2.738 2.025-5.896 6.917-5.896 2.211.042 4.356.76 6.147 2.057a.808.808 0 01.187 1.02l-1.167 1.815a.809.809 0 01-1.069.364 10.112 10.112 0 00-4.276-1.685 2.431 2.431 0 00-2.706 2.13c0 1.45 1.142 2.43 3.629 3.443 2.981 1.199 6.423 2.98 6.423 6.95 0 3.166-2.738 6.082-7.071 6.082a9.873 9.873 0 01-6.755-2.43c-.275-.275-.437-.43-.154-.923M114.413.89a.59.59 0 01.176-.417.592.592 0 01.423-.165h12.514a.581.581 0 01.583.583V3.41a.58.58 0 01-.583.583h-9.112v5.775h7.589a.607.607 0 01.583.583v2.519a.596.596 0 01-.583.583h-7.589v7.776a.604.604 0 01-.583.591h-2.819a.583.583 0 01-.583-.583V.89M134.824.89a.584.584 0 01.583-.582h12.513a.585.585 0 01.584.583V3.41a.595.595 0 01-.584.583h-9.095v5.038h7.589a.601.601 0 01.583.583v2.535a.58.58 0 01-.583.583h-7.589v5.378h9.095a.594.594 0 01.584.584v2.527a.597.597 0 01-.584.583h-12.513a.591.591 0 01-.583-.583V.89zM155.963.89a.585.585 0 01.583-.582h8.788a6.655 6.655 0 016.707 6.6 6.78 6.78 0 01-4.552 6.213l4.211 7.8a.598.598 0 01-.178.81.637.637 0 01-.34.08h-3.24a.498.498 0 01-.486-.274l-4.049-8.1h-3.443v7.832a.596.596 0 01-.583.583h-2.827a.583.583 0 01-.583-.583V.891h-.008zm9.039 9.218a3.133 3.133 0 003.046-3.134 3.07 3.07 0 00-3.046-2.981h-5.005v6.115h5.005zM189.001 0a11.015 11.015 0 11-11.032 10.999A11.024 11.024 0 01189.001 0zm0 18.135a7.075 7.075 0 006.552-4.335 7.068 7.068 0 00-1.497-7.713 7.069 7.069 0 00-10.884 1.022 7.069 7.069 0 00-1.209 3.922v.065a7.084 7.084 0 007.038 7.039z"/>
  </g>
  <path fill="#C9C5C5" d="M3.42 48a.555.555 0 01-.374-.132.555.555 0 01-.132-.374V33.128c0-.161.044-.286.132-.374a.51.51 0 01.374-.154h6.028c1.57 0 2.75.374 3.542 1.122.792.748 1.188 1.73 1.188 2.948 0 .821-.19 1.503-.572 2.046-.367.543-.807.939-1.32 1.188.616.308 1.137.785 1.562 1.43.425.645.638 1.386.638 2.222 0 .821-.19 1.57-.572 2.244-.367.675-.917 1.21-1.65 1.606-.733.396-1.613.594-2.64.594H3.42zm5.698-8.888c.924 0 1.628-.213 2.112-.638.499-.425.748-1.02.748-1.782 0-.748-.242-1.32-.726-1.716-.484-.396-1.195-.594-2.134-.594H5.07v4.73h4.048zm.22 7.106c.924 0 1.643-.25 2.156-.748.528-.499.792-1.137.792-1.914 0-.807-.264-1.452-.792-1.936-.513-.499-1.232-.748-2.156-.748H5.07v5.346h4.268zM19.325 48a.555.555 0 01-.374-.132.555.555 0 01-.132-.374V33.128c0-.161.044-.286.132-.374a.51.51 0 01.374-.154h5.368c1.687 0 3.007.396 3.96 1.188.954.792 1.43 1.936 1.43 3.432 0 1.115-.278 2.031-.836 2.75-.542.719-1.312 1.217-2.31 1.496l3.388 5.852a.548.548 0 01.066.242c0 .117-.051.22-.154.308a.422.422 0 01-.308.132h-1.056c-.22 0-.396-.051-.528-.154a1.565 1.565 0 01-.33-.44l-3.19-5.588h-3.85v5.676a.51.51 0 01-.154.374.555.555 0 01-.374.132h-1.122zm5.28-8.052c2.186 0 3.278-.917 3.278-2.75s-1.092-2.75-3.278-2.75h-3.63v5.5h3.63zM34.951 48a.555.555 0 01-.374-.132.555.555 0 01-.132-.374V33.106c0-.147.044-.264.132-.352a.51.51 0 01.374-.154h1.166a.44.44 0 01.352.154.44.44 0 01.154.352v14.388a.51.51 0 01-.154.374.476.476 0 01-.352.132h-1.166zm7.226 0a.555.555 0 01-.374-.132.555.555 0 01-.132-.374V33.128c0-.161.044-.286.132-.374a.509.509 0 01.374-.154h4.994c2.215 0 3.813.499 4.796 1.496.983.983 1.496 2.471 1.54 4.466.015.425.022.997.022 1.716s-.007 1.298-.022 1.738c-.044 1.393-.279 2.53-.704 3.41-.41.865-1.063 1.51-1.958 1.936-.895.425-2.083.638-3.564.638h-5.104zm4.994-1.87c1.012 0 1.811-.14 2.398-.418a2.535 2.535 0 001.298-1.32c.279-.616.433-1.437.462-2.464.03-.88.044-1.43.044-1.65 0-.235-.015-.777-.044-1.628-.03-1.452-.374-2.508-1.034-3.168-.66-.675-1.738-1.012-3.234-1.012h-3.234v11.66h3.344zm16.488 2.09c-1.921 0-3.417-.52-4.488-1.562-1.056-1.056-1.62-2.493-1.694-4.312-.015-.44-.022-1.13-.022-2.068 0-.953.007-1.643.022-2.068.073-1.804.645-3.227 1.716-4.268 1.07-1.041 2.56-1.562 4.466-1.562 1.29 0 2.383.235 3.278.704.91.455 1.591 1.012 2.046 1.672.455.66.697 1.276.726 1.848v.044a.355.355 0 01-.132.286.498.498 0 01-.33.11h-1.298a.655.655 0 01-.33-.066c-.059-.059-.117-.169-.176-.33-.22-.66-.645-1.225-1.276-1.694-.616-.47-1.452-.704-2.508-.704-1.217 0-2.17.33-2.86.99-.69.66-1.063 1.687-1.122 3.08a62.89 62.89 0 00-.022 1.958c0 .865.007 1.518.022 1.958.059 1.408.433 2.45 1.122 3.124.69.66 1.643.99 2.86.99 1.232 0 2.215-.337 2.948-1.012.733-.675 1.1-1.687 1.1-3.036v-.924h-3.3a.555.555 0 01-.374-.132.587.587 0 01-.132-.396v-.704c0-.147.044-.271.132-.374a.51.51 0 01.374-.154h4.972a.44.44 0 01.352.154.466.466 0 01.154.374v2.112c0 1.203-.25 2.251-.748 3.146-.499.895-1.217 1.591-2.156 2.09-.939.484-2.046.726-3.322.726zm11.08-.22a.555.555 0 01-.374-.132.555.555 0 01-.131-.374V33.128c0-.161.044-.286.132-.374a.51.51 0 01.374-.154h9.086a.44.44 0 01.352.154.466.466 0 01.154.374v.836a.555.555 0 01-.132.374c-.088.088-.213.132-.374.132h-7.48v4.818h6.995a.44.44 0 01.353.154.466.466 0 01.153.374v.814a.51.51 0 01-.153.374.476.476 0 01-.353.132h-6.995v4.994H84c.162 0 .286.044.374.132.088.088.132.213.132.374v.858a.51.51 0 01-.154.374.476.476 0 01-.352.132H74.74z"/>
  <defs>
    <clipPath id="clip0">
      <path fill="#fff" d="M0 0h200v22.136H0z"/>
    </clipPath>
  </defs>
</svg>
